<svg id="Layer_2" xmlns="http://www.w3.org/2000/svg" viewBox="0 0 650 300" height="50" >
<g id="Layer_1-2"><path d="m157.77,208.2c-15.75,0-24.3-7.65-24.3-23.85v-84.75h4.2c5.55,0,9.6,3.45,9.6,10.5v72.6c0,10.05,5.1,12.9,12.6,12.9h8.85v4.5c0,5.55-3.6,8.1-10.95,8.1Z" style="fill:#1e4b75;"/>
<path d="m205.77,208.2c-15.75,0-24.3-7.65-24.3-23.85v-84.75h4.2c5.55,0,9.6,3.45,9.6,10.5v72.6c0,10.05,5.1,12.9,12.6,12.9h8.85v4.5c0,5.55-3.6,8.1-10.95,8.1Z" style="fill:#1e4b75;"/>
<path d="m260.67,209.1c-19.65,0-32.7-13.65-32.7-37.2v-44.55h4.2c6.15,0,9.45,3.6,9.45,10.65v33.15c0,16.35,8.25,25.05,19.95,25.05,12.6,0,19.05-7.2,19.05-24.45v-44.4h3.75c6.6,0,9.9,3.45,9.9,10.65v35.1c0,23.55-12.15,36-33.6,36Z" style="fill:#1e4b75;"/>
<path d="m423.71,207.6c-5.25,0-9-3.6-9-10.05v-35.4c0-16.8-6.3-23.4-17.25-23.4-13.2,0-18.75,6.75-18.75,22.95v45.9h-4.65c-6.6,0-9.15-3.6-9.15-10.05v-35.4c0-14.55-6.45-23.4-18-23.4s-18,7.05-18,23.4v45.45h-4.35c-5.7,0-9.45-3.3-9.45-10.05v-37.2c0-18.45,11.7-34.5,32.7-34.5,11.85,0,19.95,5.25,24.9,14.55,5.25-8.7,14.7-14.55,25.2-14.55,19.95,0,30.6,12,30.6,35.85v45.9h-4.8Z" style="fill:#1e4b75;"/>
<path d="m459.41,116.26c-5.1,0-9.3-4.2-9.3-9.3s4.2-9.45,9.3-9.45,9.15,4.35,9.15,9.45-4.05,9.3-9.15,9.3Zm16.8,92.1c-15.75,0-24-7.8-24-23.85v-57.15h4.2c4.65,0,9.45,3.6,9.45,10.65v44.55c0,10.05,4.95,13.2,12.45,13.2h5.85v4.5c0,5.1-3.15,8.1-7.95,8.1Z" style="fill:#1e4b75;"/>
<path d="m558.26,207.6c-5.55,0-8.55-2.85-8.55-8.85v-36.9c0-16.65-6.15-23.1-20.4-23.1-12,0-18.9,6.75-18.9,23.1v45.75h-5.1c-4.95,0-8.4-3-8.4-9.3v-36.75c0-22.5,13.5-35.7,34.05-35.7s32.25,11.55,32.25,35.55v46.2h-4.95Z" style="fill:#1e4b75;"/>
<path d="m615.71,173.7h-19.8c1.35,13.35,10.65,22.8,25.65,22.8,12.3,0,19.8-3.9,24.3-8.25h.75v6c0,8.4-9,14.85-27,14.85-22.05,0-37.65-16.95-37.65-40.05,0-25.95,16.2-43.2,37.5-43.2,15.6,0,30.3,11.85,30.3,27.9,0,14.1-6.6,19.95-34.05,19.95Zm2.25-35.55c-13.2,0-21.6,11.1-22.05,21.45l-.15,3.3,18.15-.3c19.35-.3,22.65-2.1,22.65-8.1,0-8.7-6-16.35-18.6-16.35Z" style="fill:#1e4b75;"/>
<path d="m64.11,224.24h92v7c0,6.62-5.38,12-12,12H52.11v-7c0-6.62,5.38-12,12-12Z" style="fill:#1e4b75;"/>
<path d="m64.11,253.8h92v7c0,6.62-5.38,12-12,12H52.11v-7c0-6.62,5.38-12,12-12Z" style="fill:#1e4b75;"/>
<path d="m92.11,281.3h38v7c0,6.62-5.38,12-12,12h-38v-7c0-6.62,5.38-12,12-12Z" style="fill:#163756;"/>
<path d="m194.05,53.63C175.78,20.81,141.14.26,103.66,0h-.11c-27.34.19-53.1,10.89-72.54,30.12C11.59,49.33.58,74.98,0,102.34c0,.05,0,.11,0,.16v3.33c0,.08,0,.16,0,.24.4,12.23,2.8,24.24,7.14,35.69.02.06.04.11.07.17,4.45,10.92,10.47,20.82,17.9,29.42.05.06.11.12.17.19,5.66,6.13,12.81,17.8,21.27,34.7,2.33,5.17,7.45,8.37,13.44,8.37h38.73c5.52,0,10-4.48,10-10v-92.1c0-4.05-3.75-6.9-7.35-6.9h-6.6v93.99h-34.77c-9.19-18.38-16.92-30.86-23.62-38.15-6.31-7.32-11.44-15.77-15.25-25.11-3.72-9.83-5.78-20.14-6.13-30.65v-3.12C16.07,53.82,54.97,15.37,103.6,15c32.07.25,61.7,17.84,77.34,45.93,2.01,3.62,6.58,4.92,10.2,2.9,3.62-2.02,4.92-6.58,2.9-10.2Z" style="fill:#1e4b75;"/>
</g>
</svg>